<svg width="186" height="32" viewBox="0 0 186 32" fill="none" xmlns="http://www.w3.org/2000/svg">
<rect width="31.3506" height="31.3506" rx="15.6753" fill="#3C425E"/>
<path d="M20.4792 16.9627C20.4777 17.2103 20.424 17.4548 20.3215 17.6802C20.2141 17.924 20.0387 18.1317 19.8164 18.2785C19.5941 18.4252 19.3343 18.505 19.0679 18.5081L12.4294 18.5081C12.163 18.505 11.9032 18.4252 11.6809 18.2785C11.4586 18.1317 11.2832 17.924 11.1758 17.6802C11.0433 17.3997 10.9923 17.0877 11.0285 16.7796C11.0648 16.4716 11.1868 16.1799 11.3808 15.9378L14.7 11.9168C14.8256 11.7592 14.9851 11.6318 15.1666 11.5443C15.3482 11.4568 15.5471 11.4113 15.7486 11.4113C15.9502 11.4113 16.1491 11.4568 16.3307 11.5443C16.5122 11.6318 16.6717 11.7592 16.7973 11.9168L20.1165 15.9378C20.3516 16.2276 20.4796 16.5896 20.4792 16.9627Z" fill="#BCFF66"/>
<path d="M39.3506 23.9317V10.6572H42.3748L42.6425 12.9053C43.0528 12.1202 43.6416 11.4957 44.4088 11.0319C45.1939 10.568 46.1128 10.336 47.1655 10.336C48.8069 10.336 50.0826 10.8534 50.9926 11.8883C51.9025 12.9231 52.3575 14.4397 52.3575 16.438V23.9317H48.9318V16.7592C48.9318 15.6173 48.6999 14.743 48.236 14.1364C47.7721 13.5298 47.0495 13.2264 46.0682 13.2264C45.1047 13.2264 44.3107 13.5654 43.6862 14.2434C43.0796 14.9214 42.7763 15.8671 42.7763 17.0803V23.9317H39.3506Z" fill="#BCFF66"/>
<path d="M61.0127 24.2529C59.6745 24.2529 58.488 23.9674 57.4532 23.3965C56.4184 22.8255 55.6065 22.0226 55.0177 20.9878C54.429 19.9529 54.1346 18.7575 54.1346 17.4015C54.1346 16.0277 54.42 14.8055 54.991 13.7349C55.5798 12.6644 56.3827 11.8347 57.3997 11.246C58.4345 10.6393 59.6478 10.336 61.0395 10.336C62.3419 10.336 63.4928 10.6215 64.4919 11.1924C65.4911 11.7634 66.2672 12.5484 66.8203 13.5476C67.3913 14.5289 67.6768 15.6262 67.6768 16.8395C67.6768 17.0357 67.6678 17.2409 67.65 17.455C67.65 17.6691 67.6411 17.8922 67.6232 18.1241H57.5335C57.6049 19.159 57.9617 19.9708 58.604 20.5596C59.2642 21.1484 60.0582 21.4427 60.9859 21.4427C61.6818 21.4427 62.2617 21.2911 62.7256 20.9878C63.2073 20.6666 63.5641 20.2562 63.7961 19.7567H67.2753C67.0255 20.5952 66.6062 21.3625 66.0174 22.0583C65.4465 22.7363 64.7328 23.2716 63.8764 23.6641C63.0378 24.0566 62.0832 24.2529 61.0127 24.2529ZM61.0395 13.1194C60.2009 13.1194 59.4604 13.3603 58.8181 13.842C58.1758 14.3059 57.7654 15.0196 57.587 15.9831H64.1975C64.144 15.1088 63.8228 14.4129 63.2341 13.8955C62.6453 13.3781 61.9137 13.1194 61.0395 13.1194Z" fill="#BCFF66"/>
<path d="M67.3148 23.9317L72.1322 17.2944L67.3148 10.6572H70.9814L74.3536 15.3675L77.699 10.6572H81.3923L76.5481 17.2944L81.3923 23.9317H77.699L74.3536 19.2214L70.9814 23.9317H67.3148Z" fill="#BCFF66"/>
<path d="M88.4189 23.9317C87.0272 23.9317 85.9121 23.5927 85.0735 22.9147C84.2349 22.2367 83.8156 21.0324 83.8156 19.3017V13.5208H81.5407V10.6572H83.8156L84.2171 7.09766H87.2413V10.6572H90.8276V13.5208H87.2413V19.3285C87.2413 19.9708 87.3751 20.4168 87.6428 20.6666C87.9282 20.8986 88.41 21.0145 89.088 21.0145H90.7473V23.9317H88.4189Z" fill="#BCFF66"/>
<path d="M92.4039 17.6156V14.7519H103.618V17.6156H92.4039Z" fill="#BCFF66"/>
<path d="M111.228 24.2529C110.05 24.2529 109.015 24.0655 108.123 23.6909C107.231 23.2983 106.517 22.7631 105.982 22.0851C105.447 21.4071 105.126 20.622 105.019 19.7299H108.471C108.578 20.2473 108.864 20.6934 109.327 21.0681C109.809 21.4249 110.425 21.6033 111.174 21.6033C111.923 21.6033 112.468 21.4517 112.807 21.1484C113.164 20.845 113.342 20.4971 113.342 20.1046C113.342 19.5336 113.092 19.15 112.593 18.9538C112.093 18.7397 111.397 18.5345 110.505 18.3382C109.934 18.2133 109.354 18.0617 108.765 17.8832C108.177 17.7048 107.632 17.4818 107.133 17.2142C106.651 16.9287 106.259 16.5718 105.955 16.1436C105.652 15.6976 105.5 15.1534 105.5 14.5111C105.5 13.3335 105.964 12.3433 106.892 11.5404C107.838 10.7375 109.158 10.336 110.853 10.336C112.423 10.336 113.672 10.7018 114.6 11.4333C115.545 12.1648 116.107 13.1729 116.286 14.4575H113.048C112.851 13.4762 112.111 12.9856 110.826 12.9856C110.184 12.9856 109.684 13.1105 109.327 13.3603C108.988 13.61 108.819 13.9223 108.819 14.297C108.819 14.6895 109.078 15.0017 109.595 15.2337C110.113 15.4656 110.799 15.6797 111.656 15.876C112.584 16.0901 113.431 16.331 114.198 16.5986C114.983 16.8484 115.608 17.232 116.072 17.7494C116.536 18.249 116.768 18.9716 116.768 19.9172C116.785 20.738 116.571 21.4784 116.125 22.1386C115.679 22.7988 115.037 23.3162 114.198 23.6909C113.36 24.0655 112.37 24.2529 111.228 24.2529Z" fill="#BCFF66"/>
<path d="M124.228 23.9317C122.837 23.9317 121.721 23.5927 120.883 22.9147C120.044 22.2367 119.625 21.0324 119.625 19.3017V13.5208H117.35V10.6572H119.625L120.026 7.09766H123.051V10.6572H126.637V13.5208H123.051V19.3285C123.051 19.9708 123.185 20.4168 123.452 20.6666C123.738 20.8986 124.219 21.0145 124.897 21.0145H126.557V23.9317H124.228Z" fill="#BCFF66"/>
<path d="M133.084 24.2529C131.942 24.2529 131.006 24.0745 130.274 23.7176C129.543 23.3429 128.998 22.8523 128.642 22.2456C128.285 21.639 128.106 20.9699 128.106 20.2384C128.106 19.0073 128.588 18.0081 129.551 17.2409C130.515 16.4737 131.96 16.0901 133.887 16.0901H137.259V15.7689C137.259 14.859 137.001 14.1899 136.483 13.7617C135.966 13.3335 135.323 13.1194 134.556 13.1194C133.86 13.1194 133.254 13.2889 132.736 13.6279C132.219 13.949 131.898 14.4308 131.773 15.0731H128.427C128.517 14.1096 128.838 13.271 129.391 12.5574C129.962 11.8437 130.693 11.2995 131.585 10.9248C132.478 10.5323 133.477 10.336 134.583 10.336C136.474 10.336 137.964 10.8088 139.052 11.7545C140.141 12.7001 140.685 14.0383 140.685 15.7689V23.9317H137.768L137.447 21.7907C137.054 22.5044 136.501 23.0931 135.787 23.557C135.091 24.0209 134.19 24.2529 133.084 24.2529ZM133.86 21.5766C134.842 21.5766 135.6 21.2554 136.135 20.6131C136.688 19.9708 137.036 19.1768 137.179 18.2312H134.262C133.352 18.2312 132.701 18.4007 132.308 18.7397C131.916 19.0608 131.719 19.4623 131.719 19.944C131.719 20.4614 131.916 20.8629 132.308 21.1484C132.701 21.4338 133.218 21.5766 133.86 21.5766Z" fill="#BCFF66"/>
<path d="M142.884 23.9317V10.6572H145.935L146.256 13.1461C146.737 12.2897 147.389 11.6117 148.209 11.1121C149.048 10.5947 150.029 10.336 151.153 10.336V13.949H150.19C149.441 13.949 148.771 14.065 148.183 14.297C147.594 14.5289 147.13 14.9304 146.791 15.5013C146.47 16.0723 146.309 16.8662 146.309 17.8832V23.9317H142.884Z" fill="#BCFF66"/>
<path d="M158.339 23.9317C156.947 23.9317 155.832 23.5927 154.993 22.9147C154.155 22.2367 153.736 21.0324 153.736 19.3017V13.5208H151.461V10.6572H153.736L154.137 7.09766H157.161V10.6572H160.748V13.5208H157.161V19.3285C157.161 19.9708 157.295 20.4168 157.563 20.6666C157.848 20.8986 158.33 21.0145 159.008 21.0145H160.667V23.9317H158.339Z" fill="#BCFF66"/>
<path d="M168.728 24.2529C167.39 24.2529 166.204 23.9674 165.169 23.3965C164.134 22.8255 163.322 22.0226 162.733 20.9878C162.145 19.9529 161.85 18.7575 161.85 17.4015C161.85 16.0277 162.136 14.8055 162.707 13.7349C163.296 12.6644 164.098 11.8347 165.115 11.246C166.15 10.6393 167.364 10.336 168.755 10.336C170.058 10.336 171.209 10.6215 172.208 11.1924C173.207 11.7634 173.983 12.5484 174.536 13.5476C175.107 14.5289 175.393 15.6262 175.393 16.8395C175.393 17.0357 175.384 17.2409 175.366 17.455C175.366 17.6691 175.357 17.8922 175.339 18.1241H165.249C165.321 19.159 165.677 19.9708 166.32 20.5596C166.98 21.1484 167.774 21.4427 168.702 21.4427C169.398 21.4427 169.977 21.2911 170.441 20.9878C170.923 20.6666 171.28 20.2562 171.512 19.7567H174.991C174.741 20.5952 174.322 21.3625 173.733 22.0583C173.162 22.7363 172.449 23.2716 171.592 23.6641C170.754 24.0566 169.799 24.2529 168.728 24.2529ZM168.755 13.1194C167.917 13.1194 167.176 13.3603 166.534 13.842C165.892 14.3059 165.481 15.0196 165.303 15.9831H171.913C171.86 15.1088 171.539 14.4129 170.95 13.8955C170.361 13.3781 169.629 13.1194 168.755 13.1194Z" fill="#BCFF66"/>
<path d="M177.203 23.9317V10.6572H180.254L180.575 13.1461C181.057 12.2897 181.708 11.6117 182.529 11.1121C183.368 10.5947 184.349 10.336 185.473 10.336V13.949H184.51C183.76 13.949 183.091 14.065 182.502 14.297C181.914 14.5289 181.45 14.9304 181.111 15.5013C180.789 16.0723 180.629 16.8662 180.629 17.8832V23.9317H177.203Z" fill="#BCFF66"/>
</svg>
